# xmcd CD Database Entry
#
# Track frame offsets:
# 150
# 14647
# 30920
# 42577
# 67680
# 82440
# 96177
# 118617
# 138020
# 156140
# 174907
# 187497
# 204285
# 218797
#
# Disc length: 3417 seconds
#
# Revision: 3
# Processed by: cddbd v1.4PL0 Copyright (c) Steve Scherf et al.
# Submitted via: tcd 2.0b
#
DISCID=bf0d570e
DTITLE=The Guy Forsyth Band - Needlegun
DYEAR=1995
DGENRE=Blues
TTITLE0=Don't Stand Still (Snakeboy's Lament)
TTITLE1=Johnny's Place
TTITLE2=Death Gonna Hunt You Down
TTITLE3=Needle Gun
TTITLE4=I'm A Hog For You
TTITLE5=The Sweet Alice Blues
TTITLE6=Roses From The Graveyard
TTITLE7=Taxi
TTITLE8=This Is Hip
TTITLE9=Don't Turn Me In
TTITLE10=Son's House
TTITLE11=Temperature
TTITLE12=One That Got Away
TTITLE13=Hometown Boy
EXTD=
EXTT0=
EXTT1=
EXTT2=
EXTT3=
EXTT4=
EXTT5=
EXTT6=
EXTT7=
EXTT8=
EXTT9=
EXTT10=
EXTT11=
EXTT12=
EXTT13=
PLAYORDER=
